<svg width="141" height="141" viewBox="0 0 141 141" fill="none" xmlns="http://www.w3.org/2000/svg">
<path d="M44.3408 72.5293C55.2937 72.3554 64.3339 81.5696 64.334 92.3486C63.9863 106.953 69.8979 112.864 73.375 115.124C73.8963 115.472 73.7225 116.341 73.0273 116.341H44.3408C33.2141 116.341 24.3477 107.301 24.3477 96.3477V92.5225C24.3478 81.3958 33.388 72.5293 44.3408 72.5293ZM115.471 67.1387C115.818 66.6171 116.688 66.7909 116.688 67.4863V96.3467C116.687 107.473 107.647 116.34 96.6943 116.34H92.8691C81.7425 116.34 72.8762 107.299 72.876 96.3467C72.5283 85.2199 81.7424 76.1787 92.6953 76.1787C107.299 76.5264 113.211 70.6158 115.471 67.1387ZM69.2119 61.5625C69.6209 60.616 70.9631 60.616 71.3721 61.5625C72.8194 64.9118 75.461 67.6045 78.7822 69.1152C79.7008 69.5335 79.701 70.8388 78.7822 71.2568C75.4611 72.7676 72.8195 75.4593 71.3721 78.8086C70.9631 79.7551 69.6209 79.7551 69.2119 78.8086C67.7646 75.4593 65.1229 72.7676 61.8018 71.2568C60.8828 70.8388 60.8829 69.5334 61.8018 69.1152C65.123 67.6045 67.7645 64.9118 69.2119 61.5625ZM47.8184 24.1738C58.9451 24.1739 67.8114 33.2142 67.8115 44.167C68.1592 55.2938 58.9451 64.1601 47.9922 64.1602C33.3883 63.8124 27.4769 69.7241 25.2168 73.2012C24.869 73.7225 24.0001 73.5488 24 72.8535V44.167C24.0001 33.0404 33.0404 24.174 43.9932 24.1738H47.8184ZM96.5225 24C107.649 24.0001 116.515 33.0404 116.516 43.9932V47.8184C116.516 58.945 107.475 67.8114 96.5225 67.8115C85.3957 68.1592 76.5283 58.9451 76.5283 47.9922C76.876 33.3883 70.9654 27.4769 67.4883 25.2168C66.9668 24.8691 67.1406 24 67.8359 24H96.5225Z" fill="#28008F"/>
</svg>
